HIERARCHY
ROOT joint_0
{
	OFFSET 0.000000 0.000000 0.000000
	CHANNELS 6 Xposition Yposition Zposition Zrotation Yrotation Xrotation 
	JOINT joint_1
	{
		OFFSET 6.590088 -1.122192 114.019043
		CHANNELS 3 Zrotation Yrotation Xrotation
		JOINT joint_2
		{
			OFFSET -5.956055 -0.820435 104.151001
			CHANNELS 3 Zrotation Yrotation Xrotation
			JOINT joint_3
			{
				OFFSET -7.343506 -1.103027 103.942993
				CHANNELS 3 Zrotation Yrotation Xrotation
				JOINT joint_4
				{
					OFFSET 3.109131 -2.857056 147.715942
					CHANNELS 3 Zrotation Yrotation Xrotation
					JOINT joint_5
					{
						OFFSET 28.592285 -2.852295 87.703979
						CHANNELS 3 Zrotation Yrotation Xrotation
						End Site
						{
							OFFSET 0.000000 0.000000 0.000000
						}
					}
				}
				JOINT joint_6
				{
					OFFSET -0.332520 -33.687378 82.401978
					CHANNELS 3 Zrotation Yrotation Xrotation
					JOINT joint_7
					{
						OFFSET -7.397461 -168.719177 -22.750977
						CHANNELS 3 Zrotation Yrotation Xrotation
						JOINT joint_8
						{
							OFFSET 17.065918 -24.903137 -272.721069
							CHANNELS 3 Zrotation Yrotation Xrotation
							JOINT joint_9
							{
								OFFSET 33.311279 -37.031616 -278.192993
								CHANNELS 3 Zrotation Yrotation Xrotation
								End Site
								{
									OFFSET 0.000000 0.000000 0.000000
								}
							}
						}
					}
				}
				JOINT joint_10
				{
					OFFSET 3.914307 30.461670 83.552979
					CHANNELS 3 Zrotation Yrotation Xrotation
					JOINT joint_11
					{
						OFFSET 15.543701 166.845459 -30.963013
						CHANNELS 3 Zrotation Yrotation Xrotation
						JOINT joint_12
						{
							OFFSET 35.734863 35.017700 -269.786011
							CHANNELS 3 Zrotation Yrotation Xrotation
							JOINT joint_13
							{
								OFFSET 70.506592 13.977783 -273.320007
								CHANNELS 3 Zrotation Yrotation Xrotation
								End Site
								{
									OFFSET 0.000000 0.000000 0.000000
								}
							}
						}
					}
				}
			}
		}
	}
	JOINT joint_14
	{
		OFFSET -0.314697 -95.093994 -116.004028
		CHANNELS 3 Zrotation Yrotation Xrotation
		JOINT joint_15
		{
			OFFSET -22.490723 2.017883 -455.510986
			CHANNELS 3 Zrotation Yrotation Xrotation
			JOINT joint_16
			{
				OFFSET -46.427490 7.144104 -496.360985
				CHANNELS 3 Zrotation Yrotation Xrotation
				JOINT joint_17
				{
					OFFSET 209.055420 -37.122803 -85.191002
					CHANNELS 3 Zrotation Yrotation Xrotation
					End Site
					{
						OFFSET 0.000000 0.000000 0.000000
					}
				}
			}
		}
	}
	JOINT joint_18
	{
		OFFSET 5.652832 94.642578 -116.244019
		CHANNELS 3 Zrotation Yrotation Xrotation
		JOINT joint_19
		{
			OFFSET -12.379883 -7.332642 -455.843994
			CHANNELS 3 Zrotation Yrotation Xrotation
			JOINT joint_20
			{
				OFFSET -45.227051 -8.172241 -496.457985
				CHANNELS 3 Zrotation Yrotation Xrotation
				JOINT joint_21
				{
					OFFSET 210.522949 -11.530396 -88.809004
					CHANNELS 3 Zrotation Yrotation Xrotation
					End Site
					{
						OFFSET 0.000000 0.000000 0.000000
					}
				}
			}
		}
	}
}
MOTION
Frames: 17
Frame Time: 0.016667
-2668.304932 1072.629028 1183.061035 0.155946 -0.097342 -0.049556 -0.012576 0.250322 -0.075182 -0.009874 -0.056482 0.014407 -0.009828 0.073383 -0.004418 -0.029051 -0.080049 0.081109 0.000000 0.000000 0.000000 0.499138 -0.458359 0.591557 -0.014881 -0.353197 -0.226455 -0.091317 0.494900 -0.211801 0.000000 0.000000 0.000000 -0.120265 -0.232458 -0.179772 -0.010859 -0.243040 0.151724 -0.002734 -0.018480 -0.006932 0.000000 0.000000 0.000000 -0.044874 0.032385 0.352440 -0.003394 0.518589 -0.443951 -0.050396 -0.025794 -0.025116 0.000000 0.000000 0.000000 -0.073033 0.417979 -0.053175 -0.071782 -0.260867 0.302716 -0.052267 0.269542 -0.007286 0.000000 0.000000 0.000000 
-2667.863770 1072.552734 1182.982056 0.177258 -0.097625 -0.049741 -0.016055 0.265678 -0.084794 -0.012878 -0.059637 0.015683 -0.012898 0.077666 -0.005187 -0.031743 -0.088390 0.088531 0.000000 0.000000 0.000000 0.541238 -0.496427 0.645961 -0.015993 -0.382305 -0.243628 -0.098798 0.536844 -0.227476 0.000000 0.000000 0.000000 -0.129050 -0.251358 -0.198530 -0.012183 -0.263747 0.167216 -0.004252 -0.018947 -0.012724 0.000000 0.000000 0.000000 -0.051251 0.035576 0.370988 -0.007476 0.560235 -0.468414 -0.057084 -0.036875 -0.029808 0.000000 0.000000 0.000000 -0.081095 0.449054 -0.056960 -0.079594 -0.279865 0.319403 -0.059006 0.287883 -0.009124 0.000000 0.000000 0.000000 
-2667.418701 1072.477417 1182.905029 0.200329 -0.096021 -0.048909 -0.019874 0.278800 -0.095283 -0.016195 -0.062767 0.016213 -0.016116 0.081768 -0.004335 -0.033883 -0.095606 0.094371 0.000000 0.000000 0.000000 0.580359 -0.532287 0.697577 -0.016994 -0.409837 -0.258681 -0.105929 0.576880 -0.242322 0.000000 0.000000 0.000000 -0.137408 -0.269125 -0.219053 -0.013348 -0.283725 0.184735 -0.006109 -0.019028 -0.019905 0.000000 0.000000 0.000000 -0.057936 0.038610 0.387088 -0.012106 0.599314 -0.490654 -0.064061 -0.048729 -0.034756 0.000000 0.000000 0.000000 -0.089543 0.478006 -0.060736 -0.087779 -0.298501 0.334155 -0.066246 0.305225 -0.011228 0.000000 0.000000 0.000000 
-2666.969482 1072.404175 1182.829956 0.220121 -0.092981 -0.047305 -0.022426 0.289513 -0.108011 -0.017988 -0.065677 0.018644 -0.018106 0.085983 -0.005745 -0.036433 -0.102400 0.101508 0.000000 0.000000 0.000000 0.616888 -0.566011 0.749717 -0.017851 -0.435581 -0.273723 -0.112222 0.612752 -0.254780 0.000000 0.000000 0.000000 -0.146199 -0.285956 -0.237841 -0.014220 -0.302387 0.201369 -0.007245 -0.018034 -0.024508 0.000000 0.000000 0.000000 -0.063868 0.040961 0.400980 -0.016205 0.636650 -0.510728 -0.070308 -0.060224 -0.039343 0.000000 0.000000 0.000000 -0.097102 0.505300 -0.065253 -0.095129 -0.315877 0.348391 -0.072676 0.321042 -0.013074 0.000000 0.000000 0.000000 
-2666.515381 1072.333740 1182.758057 0.235024 -0.088226 -0.045430 -0.022284 0.296699 -0.122620 -0.016881 -0.067204 0.022113 -0.017349 0.088977 -0.007908 -0.038648 -0.108507 0.107687 0.000000 0.000000 0.000000 0.649220 -0.595998 0.801962 -0.018540 -0.458123 -0.289879 -0.117089 0.641777 -0.262949 0.000000 0.000000 0.000000 -0.158812 -0.301363 -0.255211 -0.014586 -0.318588 0.216899 -0.007683 -0.016978 -0.026412 0.000000 0.000000 0.000000 -0.068521 0.042049 0.413408 -0.019184 0.672421 -0.529079 -0.075301 -0.071093 -0.043307 0.000000 0.000000 0.000000 -0.103201 0.530225 -0.070410 -0.101118 -0.330902 0.362835 -0.077696 0.334797 -0.014438 0.000000 0.000000 0.000000 
-2666.058105 1072.265259 1182.687012 0.247053 -0.082323 -0.043176 -0.020584 0.302033 -0.138716 -0.014081 -0.067604 0.026051 -0.014958 0.090188 -0.009990 -0.040528 -0.114006 0.112899 0.000000 0.000000 0.000000 0.677412 -0.623266 0.852899 -0.019043 -0.478609 -0.305567 -0.121034 0.666389 -0.268319 0.000000 0.000000 0.000000 -0.173177 -0.315403 -0.272131 -0.014529 -0.332915 0.231784 -0.007505 -0.015583 -0.026001 0.000000 0.000000 0.000000 -0.072480 0.042924 0.424029 -0.021673 0.706117 -0.545252 -0.079598 -0.081883 -0.046973 0.000000 0.000000 0.000000 -0.108292 0.553562 -0.075939 -0.106148 -0.344342 0.376858 -0.081763 0.346485 -0.015513 0.000000 0.000000 0.000000 
-2665.601807 1072.199951 1182.616943 0.258325 -0.076652 -0.041290 -0.019077 0.308421 -0.153293 -0.011618 -0.069630 0.029355 -0.012892 0.093156 -0.013053 -0.042467 -0.119420 0.118302 0.000000 0.000000 0.000000 0.704224 -0.650934 0.903526 -0.019441 -0.499680 -0.321925 -0.124722 0.689777 -0.272892 0.000000 0.000000 0.000000 -0.187026 -0.328909 -0.289668 -0.014221 -0.346957 0.248205 -0.007211 -0.013752 -0.025224 0.000000 0.000000 0.000000 -0.076186 0.045724 0.433706 -0.024076 0.736565 -0.559460 -0.083592 -0.092025 -0.050401 0.000000 0.000000 0.000000 -0.113172 0.577343 -0.080900 -0.110927 -0.357681 0.390207 -0.085604 0.356179 -0.016602 0.000000 0.000000 0.000000 
-2665.147461 1072.134521 1182.546997 0.269732 -0.071434 -0.040206 -0.018321 0.316304 -0.167959 -0.009838 -0.072025 0.034010 -0.011588 0.096918 -0.016058 -0.044037 -0.123594 0.122694 0.000000 0.000000 0.000000 0.729069 -0.679579 0.951829 -0.019615 -0.522127 -0.338260 -0.128163 0.712364 -0.276299 0.000000 0.000000 0.000000 -0.199748 -0.341775 -0.309254 -0.013554 -0.360872 0.266535 -0.006823 -0.012340 -0.024000 0.000000 0.000000 0.000000 -0.079886 0.051514 0.442824 -0.026656 0.762342 -0.571203 -0.087472 -0.100927 -0.053563 0.000000 0.000000 0.000000 -0.117641 0.602537 -0.084670 -0.115198 -0.372298 0.402802 -0.088987 0.363237 -0.017643 0.000000 0.000000 0.000000 
-2664.695312 1072.071167 1182.477051 0.280782 -0.066586 -0.039469 -0.018003 0.325649 -0.181800 -0.008597 -0.075104 0.038008 -0.010712 0.100665 -0.018240 -0.045016 -0.128045 0.125247 0.000000 0.000000 0.000000 0.752564 -0.708203 0.998249 -0.019672 -0.544831 -0.354676 -0.131314 0.733263 -0.279154 0.000000 0.000000 0.000000 -0.211507 -0.353769 -0.330384 -0.012634 -0.374311 0.286166 -0.006322 -0.010573 -0.022408 0.000000 0.000000 0.000000 -0.083362 0.059203 0.451007 -0.029182 0.785217 -0.580872 -0.091074 -0.109723 -0.056592 0.000000 0.000000 0.000000 -0.121962 0.628116 -0.087893 -0.119291 -0.386550 0.414863 -0.092188 0.367760 -0.018745 0.000000 0.000000 0.000000 
-2664.242920 1072.014771 1182.406006 0.290035 -0.061314 -0.038552 -0.018800 0.332388 -0.193819 -0.008624 -0.076372 0.040541 -0.010986 0.103210 -0.019769 -0.045688 -0.132069 0.126901 0.000000 0.000000 0.000000 0.779612 -0.736055 1.043841 -0.019881 -0.566232 -0.372621 -0.134205 0.751339 -0.282975 0.000000 0.000000 0.000000 -0.219411 -0.364054 -0.352794 -0.011585 -0.386880 0.306100 -0.005703 -0.008023 -0.020513 0.000000 0.000000 0.000000 -0.086426 0.066038 0.458025 -0.031402 0.808420 -0.589436 -0.094287 -0.118302 -0.059424 0.000000 0.000000 0.000000 -0.125695 0.650896 -0.091380 -0.122908 -0.396070 0.426264 -0.094864 0.369901 -0.019756 0.000000 0.000000 0.000000 
-2663.789551 1071.966431 1182.333984 0.297373 -0.055775 -0.037157 -0.021230 0.336335 -0.204505 -0.010392 -0.076773 0.042043 -0.012908 0.104561 -0.020703 -0.046705 -0.138878 0.129333 0.000000 0.000000 0.000000 0.811664 -0.762692 1.088919 -0.020366 -0.585638 -0.392657 -0.136844 0.765646 -0.288889 0.000000 0.000000 0.000000 -0.222582 -0.371919 -0.376852 -0.010414 -0.398112 0.326811 -0.005096 -0.004037 -0.018951 0.000000 0.000000 0.000000 -0.088714 0.071131 0.463735 -0.032928 0.834057 -0.597308 -0.096800 -0.127378 -0.062059 0.000000 0.000000 0.000000 -0.128816 0.668930 -0.095175 -0.126104 -0.396806 0.436415 -0.097046 0.369166 -0.020717 0.000000 0.000000 0.000000 
-2663.336914 1071.922974 1182.261963 0.303860 -0.050247 -0.035766 -0.025375 0.338700 -0.214167 -0.013940 -0.076331 0.043082 -0.016515 0.105973 -0.020625 -0.047353 -0.147868 0.130415 0.000000 0.000000 0.000000 0.847956 -0.789093 1.132650 -0.020979 -0.604232 -0.413762 -0.139344 0.777551 -0.296315 0.000000 0.000000 0.000000 -0.221082 -0.378324 -0.402945 -0.009102 -0.408986 0.348301 -0.004406 0.000420 -0.017163 0.000000 0.000000 0.000000 -0.090733 0.075726 0.468806 -0.034247 0.860275 -0.604457 -0.099059 -0.136026 -0.064515 0.000000 0.000000 0.000000 -0.131856 0.684625 -0.098628 -0.129295 -0.393047 0.445603 -0.099188 0.366089 -0.021788 0.000000 0.000000 0.000000 
-2662.891357 1071.880737 1182.189941 0.310017 -0.044415 -0.034226 -0.028298 0.344344 -0.223514 -0.016298 -0.077886 0.044634 -0.019027 0.107891 -0.021769 -0.048140 -0.155651 0.132046 0.000000 0.000000 0.000000 0.877966 -0.815397 1.178005 -0.021559 -0.623422 -0.436897 -0.141547 0.787777 -0.303138 0.000000 0.000000 0.000000 -0.223384 -0.385626 -0.426762 -0.008021 -0.419815 0.369058 -0.004091 0.004468 -0.016745 0.000000 0.000000 0.000000 -0.092251 0.080115 0.473689 -0.035071 0.885712 -0.611733 -0.100839 -0.145532 -0.066927 0.000000 0.000000 0.000000 -0.134783 0.700526 -0.103040 -0.132408 -0.390640 0.456048 -0.101150 0.362242 -0.022826 0.000000 0.000000 0.000000 
-2662.454834 1071.839600 1182.120972 0.317006 -0.038073 -0.033106 -0.030190 0.353701 -0.230782 -0.017849 -0.079753 0.044880 -0.020513 0.111592 -0.021439 -0.048579 -0.165172 0.132433 0.000000 0.000000 0.000000 0.900490 -0.842953 1.224449 -0.022073 -0.644711 -0.462839 -0.143509 0.795101 -0.311195 0.000000 0.000000 0.000000 -0.229566 -0.395046 -0.448833 -0.007538 -0.431861 0.388445 -0.004563 0.007316 -0.019138 0.000000 0.000000 0.000000 -0.093067 0.084238 0.479058 -0.035163 0.910009 -0.619177 -0.101913 -0.155198 -0.069081 0.000000 0.000000 0.000000 -0.138256 0.718136 -0.108013 -0.136021 -0.393393 0.468365 -0.103529 0.359276 -0.023992 0.000000 0.000000 0.000000 
-2662.025391 1071.798462 1182.052002 0.323468 -0.031830 -0.032105 -0.031071 0.366779 -0.238445 -0.018292 -0.083931 0.047233 -0.021106 0.116807 -0.022609 -0.049094 -0.175288 0.132993 0.000000 0.000000 0.000000 0.917343 -0.871015 1.271771 -0.022513 -0.667184 -0.490086 -0.145330 0.801481 -0.319125 0.000000 0.000000 0.000000 -0.239110 -0.405566 -0.468963 -0.007289 -0.444192 0.407253 -0.005440 0.009426 -0.022958 0.000000 0.000000 0.000000 -0.093296 0.088517 0.484722 -0.034643 0.933476 -0.626941 -0.102414 -0.164952 -0.071016 0.000000 0.000000 0.000000 -0.141744 0.736598 -0.113326 -0.139643 -0.397897 0.481649 -0.105843 0.355516 -0.025173 0.000000 0.000000 0.000000 
-2661.598877 1071.754395 1181.983032 0.330205 -0.024189 -0.030929 -0.032021 0.376812 -0.247539 -0.018748 -0.087123 0.048594 -0.021628 0.121224 -0.023320 -0.050254 -0.184176 0.135651 0.000000 0.000000 0.000000 0.933739 -0.897459 1.319336 -0.022976 -0.688115 -0.516772 -0.147015 0.808722 -0.324962 0.000000 0.000000 0.000000 -0.248465 -0.415448 -0.489580 -0.006592 -0.456031 0.427666 -0.006285 0.010024 -0.026351 0.000000 0.000000 0.000000 -0.093865 0.091229 0.490666 -0.034418 0.956696 -0.635215 -0.103242 -0.174466 -0.073043 0.000000 0.000000 0.000000 -0.145108 0.752172 -0.119373 -0.143277 -0.400073 0.496135 -0.107993 0.350191 -0.026372 0.000000 0.000000 0.000000 
-2661.175293 1071.704346 1181.911011 0.337290 -0.015501 -0.029764 -0.032763 0.383988 -0.259982 -0.018675 -0.088981 0.051649 -0.021850 0.124040 -0.025127 -0.052311 -0.191015 0.141270 0.000000 0.000000 0.000000 0.949163 -0.922081 1.366265 -0.023431 -0.707500 -0.540772 -0.148883 0.819136 -0.328769 0.000000 0.000000 0.000000 -0.258764 -0.424535 -0.510426 -0.005252 -0.466962 0.449782 -0.006953 0.008556 -0.028649 0.000000 0.000000 0.000000 -0.095335 0.092580 0.497238 -0.035041 0.980014 -0.643793 -0.104917 -0.183503 -0.075329 0.000000 0.000000 0.000000 -0.148459 0.764468 -0.125524 -0.147040 -0.398338 0.511456 -0.110079 0.342253 -0.027686 0.000000 0.000000 0.000000 
